<svg width="24" height="22" viewBox="0 0 24 22" fill="none" xmlns="http://www.w3.org/2000/svg">
<path d="M12.0131 4.05472C12.3958 3.39971 12.8811 2.8181 13.4481 2.33467C17.0665 -0.707968 22.2921 1.73847 22.9349 6.77288C23.1319 8.31244 22.8784 9.74894 22.2211 11.1046C21.5209 12.5495 20.549 13.7423 19.4855 14.8465C17.9072 16.4847 16.1576 17.8694 14.3972 19.2388C13.7022 19.7793 13.0088 20.3222 12.317 20.8676C12.1228 21.021 11.9393 21.056 11.7363 20.8928C9.94228 19.4533 8.12867 18.0444 6.35801 16.5685C4.98275 15.4225 3.71766 14.1255 2.66217 12.5904C1.92132 11.5139 1.34246 10.3456 1.10579 8.98755C0.483977 5.4207 2.67291 1.75524 5.84637 1.13389C8.33921 0.645193 10.3605 1.58757 11.8899 3.87276C11.9235 3.92306 11.958 3.97336 12.0131 4.05472ZM1.79808 7.75323C1.83403 8.10829 1.85364 8.4663 1.90872 8.81741C2.08471 9.93831 2.56227 10.9044 3.15047 11.8053C3.98328 13.0766 4.99909 14.1452 6.07138 15.1493C7.91953 16.8792 9.93341 18.3487 11.8936 19.9031C12.0168 20.0017 12.0803 19.9312 12.1676 19.8646C12.9696 19.2393 13.7735 18.6175 14.5732 17.9907C16.1944 16.7169 17.7942 15.4116 19.2283 13.8676C20.12 12.9075 20.9318 11.8734 21.5265 10.641C22.1063 9.43926 22.3299 8.16253 22.125 6.80986C21.7417 4.28452 20.0378 2.39335 17.7947 1.97715C15.6506 1.58018 13.4715 2.8352 12.43 5.07009C12.3343 5.27523 12.2316 5.45128 11.9972 5.44536C11.775 5.43944 11.6789 5.26783 11.5883 5.07206C10.5804 2.89142 8.58522 1.68817 6.4243 1.95348C3.80075 2.27549 1.82423 4.76632 1.79808 7.75323Z" fill="black" stroke="#1D1D1B" stroke-width="0.1425" stroke-miterlimit="10"/>
</svg>
