<svg width="35" height="35" viewBox="0 0 35 35" fill="none" xmlns="http://www.w3.org/2000/svg">
<path d="M14.1224 20.9645C14.2329 21.318 14.3274 21.6275 14.4269 21.9355C14.5709 22.3815 14.7269 22.8235 14.8604 23.2725C14.9129 23.4505 14.9944 23.5115 15.1809 23.509C15.9344 23.4985 16.6879 23.5045 17.4414 23.5045H28.4839C28.5709 23.5045 28.6584 23.5045 28.7459 23.5045C29.1224 23.512 29.3534 23.701 29.3529 24.0005C29.3524 24.3 29.1224 24.4925 28.7449 24.493C24.0596 24.493 19.3741 24.493 14.6884 24.493C14.2884 24.493 14.1764 24.3895 14.0224 23.9155C12.2464 18.4428 10.4706 12.97 8.69495 7.49699C8.62445 7.27949 8.53945 7.06499 8.48695 6.84299C8.43695 6.63549 8.31395 6.57299 8.11795 6.55049C5.81795 6.28749 5.30845 6.01899 3.01095 5.75049C2.93498 5.7424 2.85964 5.7292 2.78545 5.71099C2.50495 5.63849 2.33545 5.41449 2.37495 5.16649C2.39202 5.04006 2.45822 4.92545 2.5592 4.84749C2.66019 4.76954 2.78782 4.7345 2.91445 4.74999C3.43645 4.79299 6.65595 5.38949 8.64045 5.61349C8.99045 5.65299 9.19295 5.80149 9.29995 6.13899C9.73195 7.49999 10.1849 8.85399 10.6119 10.216C10.6919 10.47 10.8049 10.5455 11.0694 10.5455C17.6334 10.5375 24.1974 10.5353 30.7614 10.539C30.8709 10.539 30.9804 10.5345 31.0894 10.5415C31.5159 10.5675 31.7209 10.8465 31.5919 11.2535C31.2594 12.3035 30.9169 13.3485 30.5769 14.3955C29.9309 16.3858 29.2843 18.3758 28.6369 20.3655C28.4589 20.9155 28.3909 20.9655 27.8249 20.9655H14.1249L14.1224 20.9645ZM30.4569 11.55H11.0649C11.0899 11.6385 11.1054 11.7 11.1254 11.761C11.9861 14.416 12.8443 17.071 13.6999 19.726C13.7759 19.964 13.9169 19.972 14.1129 19.972C18.5369 19.969 22.9608 19.9707 27.3844 19.977C27.6579 19.977 27.7579 19.8845 27.8344 19.6395C28.4144 17.823 29.0094 16.0105 29.5984 14.1965C29.8874 13.3175 30.1704 12.4375 30.4569 11.55Z" fill="black"/>
<path d="M27.859 27.9045C27.853 28.5278 27.6014 29.1236 27.159 29.5627C26.7165 30.0017 26.1188 30.2487 25.4955 30.25C24.1955 30.2465 23.1165 29.1555 23.131 27.861C23.1354 27.5495 23.2011 27.2418 23.3245 26.9557C23.4479 26.6696 23.6265 26.4107 23.85 26.1936C24.0736 25.9766 24.3377 25.8058 24.6274 25.691C24.917 25.5762 25.2265 25.5196 25.538 25.5245C25.8469 25.5276 26.1522 25.5916 26.4362 25.7131C26.7203 25.8345 26.9776 26.0108 27.1933 26.232C27.4089 26.4532 27.5788 26.7148 27.693 27.0018C27.8073 27.2888 27.8637 27.5956 27.859 27.9045ZM26.8665 27.8745C26.8675 27.6944 26.8324 27.516 26.7634 27.3496C26.6943 27.1833 26.5927 27.0325 26.4645 26.906C26.3362 26.7796 26.184 26.6801 26.0167 26.6133C25.8495 26.5466 25.6706 26.514 25.4905 26.5175C25.3104 26.518 25.1322 26.554 24.966 26.6234C24.7998 26.6928 24.6489 26.7943 24.5219 26.922C24.3949 27.0498 24.2943 27.2012 24.2259 27.3678C24.1574 27.5344 24.1225 27.7129 24.123 27.893C24.1297 28.2568 24.2785 28.6035 24.5377 28.8589C24.7968 29.1143 25.1457 29.2581 25.5095 29.2595C25.6896 29.2579 25.8677 29.2208 26.0334 29.1503C26.1992 29.0798 26.3494 28.9773 26.4755 28.8486C26.6015 28.72 26.701 28.5677 26.7681 28.4005C26.8352 28.2334 26.8686 28.0546 26.8665 27.8745Z" fill="black"/>
<path d="M15.047 27.87C15.0472 27.5585 15.1094 27.2501 15.23 26.9628C15.3507 26.6756 15.5273 26.4153 15.7497 26.1971C15.9721 25.9789 16.2356 25.8071 16.5251 25.6919C16.8146 25.5767 17.1241 25.5203 17.4355 25.526C18.7275 25.537 19.7855 26.611 19.774 27.898C19.7615 29.201 18.674 30.269 17.374 30.251C16.7507 30.2407 16.1566 29.9849 15.7209 29.539C15.2852 29.0932 15.043 28.4934 15.047 27.87ZM17.4105 26.52C17.2304 26.5166 17.0514 26.5495 16.8842 26.6166C16.717 26.6836 16.5649 26.7836 16.437 26.9105C16.3091 27.0374 16.208 27.1887 16.1396 27.3554C16.0713 27.5221 16.0371 27.7008 16.039 27.881C16.0379 28.0609 16.0721 28.2392 16.1399 28.4059C16.2077 28.5725 16.3076 28.7242 16.434 28.8522C16.5604 28.9802 16.7107 29.0821 16.8765 29.152C17.0423 29.2218 17.2202 29.2584 17.4 29.2595C17.7638 29.2569 18.112 29.1122 18.3704 28.8561C18.6287 28.6001 18.7767 28.2532 18.7825 27.8895C18.7823 27.5257 18.6376 27.1769 18.3804 26.9196C18.1232 26.6624 17.7743 26.5178 17.4105 26.5175V26.52Z" fill="black"/>
<rect x="20" width="15" height="15.5" rx="7.5" fill="black"/>
<path d="M29.9681 7.55762C29.9681 8.71973 29.7679 9.60026 29.3676 10.1992C28.9704 10.7982 28.3731 11.0977 27.5756 11.0977C26 11.0977 25.2123 9.91764 25.2123 7.55762C25.2123 6.73405 25.2985 6.06185 25.4711 5.54102C25.6436 5.02018 25.9024 4.63607 26.2474 4.38867C26.5925 4.14128 27.0482 4.01758 27.6146 4.01758C28.4284 4.01758 29.0241 4.31217 29.4017 4.90137C29.7793 5.49056 29.9681 6.37598 29.9681 7.55762ZM28.5912 7.55762C28.5912 6.92285 28.5603 6.42969 28.4984 6.07812C28.4366 5.72656 28.3373 5.47428 28.2006 5.32129C28.0638 5.16829 27.8653 5.0918 27.6049 5.0918C27.3282 5.0918 27.1182 5.16992 26.975 5.32617C26.835 5.47917 26.7341 5.73145 26.6722 6.08301C26.6136 6.43132 26.5844 6.92285 26.5844 7.55762C26.5844 8.18587 26.6153 8.67741 26.6771 9.03223C26.7422 9.38379 26.8431 9.63607 26.9799 9.78906C27.1198 9.94206 27.3217 10.0186 27.5853 10.0186C27.8457 10.0186 28.0459 9.9388 28.1859 9.7793C28.3291 9.61654 28.4317 9.35775 28.4935 9.00293C28.5586 8.64811 28.5912 8.16634 28.5912 7.55762Z" fill="white"/>
</svg>
